<svg width="30" height="32" viewBox="0 0 30 32" fill="none" xmlns="http://www.w3.org/2000/svg">
<path d="M19.7437 0.154585C19.4894 0.151034 19.2467 0.170664 19.0062 0.20771C18.0443 0.355896 17.2388 0.703541 15.6656 0.973335C14.2205 1.22115 13.2401 0.862335 12.0156 0.55146C10.7911 0.240585 9.30453 0.0422562 7.46873 0.873335C7.02005 1.07754 6.86099 1.63499 7.13435 2.04521L9.97185 6.29834C9.36782 6.87324 7.61773 8.5757 5.55935 11.3202C3.11127 14.5843 0.599976 18.881 0.599976 23.2015C0.599976 27.4418 2.69403 29.8643 5.51248 30.9483C8.33092 32.0324 11.8 32.0015 15 32.0015C18.2 32.0015 21.669 32.0324 24.4875 30.9483C27.3059 29.8643 29.4 27.4418 29.4 23.2015C29.4 18.881 26.8887 14.5843 24.4406 11.3202C22.3822 8.5757 20.6321 6.87324 20.0281 6.29834L22.8656 2.04521C23.1423 1.62934 22.9744 1.06445 22.5156 0.867085C21.3658 0.374423 20.5067 0.165239 19.7437 0.154585ZM19.25 1.78896C19.6764 1.72326 20.3295 1.97956 20.8875 2.12959L18.5718 5.60146H11.4281L9.08747 2.08896C10.0074 1.86867 10.7823 1.89144 11.6219 2.10459C12.7475 2.39038 14.1046 2.86524 15.9344 2.55146C17.6359 2.25967 18.564 1.89464 19.25 1.78896ZM11.3312 7.20146H18.6687C18.9685 7.48119 20.9751 9.37033 23.1593 12.2827C25.5113 15.4186 27.8 19.522 27.8 23.2015C27.8 26.9611 26.294 28.5386 23.9125 29.4546C21.5309 30.3706 18.2 30.4015 15 30.4015C11.8 30.4015 8.46903 30.3706 6.08748 29.4546C3.70592 28.5386 2.19998 26.9611 2.19998 23.2015C2.19998 19.522 4.48868 15.4186 6.8406 12.2827C9.02489 9.37033 11.0314 7.48119 11.3312 7.20146ZM14.2 14.4015V16.0015C12.884 16.0015 11.8 17.0855 11.8 18.4015C11.8 19.7175 12.884 20.8015 14.2 20.8015H15.8C16.2513 20.8015 16.6 21.1502 16.6 21.6015C16.6 22.0528 16.2513 22.4015 15.8 22.4015H14.2H11.8V24.0015H14.2V25.6015H15.8V24.0015C17.116 24.0015 18.2 22.9175 18.2 21.6015C18.2 20.2855 17.116 19.2015 15.8 19.2015H14.2C13.7487 19.2015 13.4 18.8528 13.4 18.4015C13.4 17.9502 13.7487 17.6015 14.2 17.6015H15.8H18.2V16.0015H15.8V14.4015H14.2Z" fill="#74A942"/>
</svg>
