<svg width="32" height="32" viewBox="0 0 32 32" fill="none" xmlns="http://www.w3.org/2000/svg">
<path d="M26.6667 25.3348H28.6667C29.5499 25.3322 30.3962 24.9802 31.0208 24.3556C31.6453 23.7311 31.9974 22.8847 32 22.0015V8.66817C31.9974 7.78493 31.6453 6.93861 31.0208 6.31406C30.3962 5.68951 29.5499 5.33748 28.6667 5.33484H3.33333C2.45009 5.33748 1.60377 5.68951 0.979225 6.31406C0.354674 6.93861 0.00263788 7.78493 0 8.66817V22.0015C0.00263788 22.8847 0.354674 23.7311 0.979225 24.3556C1.60377 24.9802 2.45009 25.3322 3.33333 25.3348H5.33333" stroke="#74A942" stroke-width="1.5" stroke-linejoin="round"/>
<path d="M24.64 14.6681H7.36004C6.24074 14.6681 5.33337 15.5755 5.33337 16.6948V29.9748C5.33337 31.0941 6.24074 32.0014 7.36004 32.0014H24.64C25.7593 32.0014 26.6667 31.0941 26.6667 29.9748V16.6948C26.6667 15.5755 25.7593 14.6681 24.64 14.6681Z" stroke="#74A942" stroke-width="1.5" stroke-linejoin="round"/>
<path d="M26.6667 5.3348V3.3348C26.6641 2.45155 26.312 1.60524 25.6875 0.980689C25.0629 0.356139 24.2166 0.00410272 23.3334 0.00146484H8.66671C7.78346 0.00410272 6.93715 0.356139 6.3126 0.980689C5.68805 1.60524 5.33601 2.45155 5.33337 3.3348V5.3348" stroke="#74A942" stroke-width="1.5" stroke-linejoin="round"/>
<path d="M27.3334 12.0015C28.4379 12.0015 29.3334 11.106 29.3334 10.0015C29.3334 8.8969 28.4379 8.00146 27.3334 8.00146C26.2288 8.00146 25.3334 8.8969 25.3334 10.0015C25.3334 11.106 26.2288 12.0015 27.3334 12.0015Z" fill="#74A942"/>
</svg>
